<?xml version="1.0" standalone="no"?>
<!DOCTYPE svg PUBLIC "-//W3C//DTD SVG 20010904//EN"
 "http://www.w3.org/TR/2001/REC-SVG-20010904/DTD/svg10.dtd">
<svg version="1.0" xmlns="http://www.w3.org/2000/svg"
 width="590.000000pt" height="590.000000pt" viewBox="0 0 590.000000 590.000000"
 preserveAspectRatio="xMidYMid meet">
<metadata>
Created by potrace 1.11, written by Peter Selinger 2001-2013
</metadata>
<g transform="translate(0.000000,590.000000) scale(0.100000,-0.100000)"
fill="#000000" stroke="none">
<path d="M0 2950 l0 -2950 2950 0 2950 0 0 2950 0 2950 -2950 0 -2950 0 0
-2950z m1908 1222 c2 -7 -13 -27 -34 -45 -21 -17 -51 -44 -66 -59 l-28 -26 0
-684 c0 -717 -6 -862 -41 -993 -36 -140 -118 -294 -211 -400 l-41 -47 81 41
c45 23 123 53 173 67 151 44 257 30 569 -71 277 -90 435 -81 560 32 66 59 97
114 116 204 44 207 -45 428 -204 506 -48 23 -68 27 -141 27 -152 -1 -232 -62
-233 -178 -1 -69 19 -101 71 -117 32 -9 47 -9 85 4 l46 16 0 -36 c0 -69 -96
-133 -200 -133 -134 0 -226 89 -246 237 -26 197 161 363 410 363 153 0 259
-43 366 -150 125 -125 175 -263 168 -460 -7 -175 -55 -285 -176 -405 -115
-115 -266 -175 -442 -175 -103 0 -166 13 -382 79 -235 71 -326 86 -433 73 -95
-13 -163 -43 -227 -100 l-41 -37 -21 30 c-42 60 -95 103 -147 120 l-53 18 44
36 c181 143 272 304 291 516 5 55 8 441 7 858 l-3 759 -69 62 c-38 34 -66 67
-63 73 10 17 509 12 515 -5z m2605 -548 c61 -21 131 -89 163 -158 64 -140 56
-291 -29 -546 -47 -143 -238 -536 -422 -870 -66 -118 -134 -246 -153 -283 -51
-101 -67 -100 -126 7 -18 34 -77 140 -129 236 -214 390 -331 714 -401 1109
-14 79 -30 149 -36 156 -5 6 -35 32 -65 56 -95 76 -92 77 187 75 180 -1 242
-4 245 -13 3 -7 -19 -34 -47 -60 -29 -27 -56 -58 -61 -70 -9 -25 11 -188 42
-342 53 -263 209 -651 351 -871 l41 -65 80 165 c286 595 383 856 394 1066 5
97 4 104 -22 152 -33 61 -76 88 -127 78 -51 -9 -80 -45 -86 -106 -5 -59 -17
-63 -61 -18 -117 119 -18 318 159 318 31 0 78 -7 103 -16z"/>
</g>
</svg>
